<svg width="71" height="71" viewBox="0 0 71 71" fill="none" xmlns="http://www.w3.org/2000/svg">
<circle cx="35.1687" cy="35.0823" r="27.5" fill="#C4C4C4" fill-opacity="0.4"/>
<path d="M35.1504 56.2548L22.8989 52.8537L20.1687 22.2316H50.1687L47.4356 52.849L35.1504 56.2548Z" fill="#264DE4"/>
<path d="M45.0958 50.8993L47.4313 24.7353H35.1687V53.6514L45.0958 50.8993Z" fill="#2965F1"/>
<path d="M26.4276 36.0927L26.7642 39.8483H35.1687V36.0927H26.4276ZM25.7512 28.4911L26.0926 32.2468H35.1687V28.4911H25.7512ZM35.1687 45.8466L35.1522 45.8509L30.9696 44.7215L30.7022 41.7262H26.932L27.4581 47.6232L35.1514 49.7588L35.1687 49.7541V45.8466Z" fill="#EBEBEB"/>
<path d="M27.2291 13.9098H31.7777V15.812H29.1313V17.7142H31.7779V19.6164H27.2291V13.9098ZM32.6875 13.9098H37.2363V15.5639H34.5898V15.8947H37.2363V19.6991H32.6877V17.9621H35.3342V17.6313H32.6874L32.6875 13.9098ZM38.1461 13.9098H42.6949V15.5639H40.0484V15.8947H42.6949V19.6991H38.1461V17.9621H40.7926V17.6313H38.1462V13.9098H38.1461Z" fill="black"/>
<path d="M43.8858 36.0927L44.5637 28.4911H35.1558V32.2468H40.4478L40.1061 36.0927H35.1558V39.8483H39.7805L39.3444 44.7192L35.1556 45.8497V49.757L42.855 47.6232L43.7942 37.1012L43.8858 36.0927Z" fill="white"/>
<path d="M6.06387 15.6424C1.69731 22.1799 -0.341112 29.9971 0.277074 37.8344C0.89526 45.6717 4.13405 53.0727 9.47156 58.8448C14.8091 64.6168 21.9344 68.4238 29.6995 69.6523C37.4646 70.8808 45.4172 69.4592 52.2758 65.6167C59.1344 61.7741 64.4996 55.7343 67.5068 48.4706C70.5141 41.2068 70.9883 33.1421 68.853 25.576C66.7177 18.0099 62.0973 11.383 55.7363 6.7631C49.3752 2.14324 41.6441 -0.200517 33.7885 0.109499L33.9997 5.46146C40.6531 5.19889 47.2012 7.18397 52.5888 11.0968C57.9763 15.0097 61.8897 20.6225 63.6982 27.0308C65.5067 33.439 65.1051 40.2696 62.558 46.4217C60.011 52.5739 55.4669 57.6894 49.6578 60.9439C43.8488 64.1984 37.1133 65.4025 30.5365 64.362C23.9597 63.3215 17.9247 60.0971 13.404 55.2084C8.88335 50.3196 6.1402 44.0512 5.61662 37.4133C5.09303 30.7753 6.81951 24.1544 10.5178 18.6173L6.06387 15.6424Z" fill="#3B5999"/>
</svg>
