<svg width="71" height="71" viewBox="0 0 71 71" fill="none" xmlns="http://www.w3.org/2000/svg">
<circle cx="35.7229" cy="35.0823" r="27.5" fill="#C4C4C4" fill-opacity="0.4"/>
<g clip-path="url(#clip0_405_30)">
<path d="M29.4742 56.3322C32.9235 56.3322 35.7229 53.5322 35.7229 50.0822V43.8322H29.4742C26.0248 43.8322 23.2254 46.6322 23.2254 50.0822C23.2254 53.5322 26.0248 56.3322 29.4742 56.3322Z" fill="#0ACF83"/>
<path d="M23.2254 37.5823C23.2254 34.1323 26.0248 31.3323 29.4742 31.3323H35.7229V43.8323H29.4742C26.0248 43.8323 23.2254 41.0323 23.2254 37.5823Z" fill="#A259FF"/>
<path d="M23.2353 25.0823C23.2353 21.6323 26.0347 18.8323 29.484 18.8323H35.7328V31.3323H29.484C26.0347 31.3323 23.2353 28.5323 23.2353 25.0823Z" fill="#F24E1E"/>
<path d="M35.7229 18.8323H41.9717C45.421 18.8323 48.2204 21.6323 48.2204 25.0823C48.2204 28.5323 45.421 31.3323 41.9717 31.3323H35.7229V18.8323Z" fill="#FF7262"/>
<path d="M48.2204 37.5823C48.2204 41.0323 45.421 43.8323 41.9717 43.8323C38.5223 43.8323 35.7229 41.0323 35.7229 37.5823C35.7229 34.1323 38.5223 31.3323 41.9717 31.3323C45.421 31.3323 48.2204 34.1323 48.2204 37.5823Z" fill="#1ABCFE"/>
</g>
<path d="M38.1644 0.167534C47.4243 0.815055 56.0478 5.11456 62.1377 12.1202C68.2277 19.1259 71.2852 28.2638 70.6376 37.5238C69.9901 46.7837 65.6906 55.4072 58.685 61.4971C51.6793 67.587 42.5414 70.6445 33.2814 69.997L33.655 64.6539C41.4979 65.2024 49.2375 62.6128 55.171 57.4548C61.1046 52.2968 64.7461 44.993 65.2946 37.1501C65.843 29.3072 63.2534 21.5677 58.0954 15.6341C52.9375 9.70059 45.6336 6.05904 37.7908 5.51061L38.1644 0.167534Z" fill="#3B5999"/>
<defs>
<clipPath id="clip0_405_30">
<rect width="25" height="37.5" fill="white" transform="translate(23.2229 18.8323)"/>
</clipPath>
</defs>
</svg>
