<svg width="45" height="46" viewBox="0 0 45 46" fill="none" xmlns="http://www.w3.org/2000/svg">
<path fill-rule="evenodd" clip-rule="evenodd" d="M22.5 8.08228C14.2125 8.08228 7.5 14.9646 7.5 23.4617C7.5 30.2671 11.7937 36.0151 17.7563 38.0529C18.5063 38.1875 18.7875 37.7261 18.7875 37.3224C18.7875 36.9571 18.7688 35.746 18.7688 34.458C15 35.1693 14.025 33.516 13.725 32.6509C13.5563 32.2087 12.825 30.8438 12.1875 30.4785C11.6625 30.1902 10.9125 29.4789 12.1687 29.4597C13.35 29.4404 14.1937 30.5747 14.475 31.036C15.825 33.3622 17.9812 32.7086 18.8438 32.3048C18.975 31.3052 19.3688 30.6323 19.8 30.2478C16.4625 29.8634 12.975 28.5369 12.975 22.6543C12.975 20.9818 13.5563 19.5976 14.5125 18.521C14.3625 18.1366 13.8375 16.5602 14.6625 14.4455C14.6625 14.4455 15.9187 14.0418 18.7875 16.0219C19.9875 15.6759 21.2625 15.5028 22.5375 15.5028C23.8125 15.5028 25.0875 15.6759 26.2875 16.0219C29.1562 14.0226 30.4125 14.4455 30.4125 14.4455C31.2375 16.5602 30.7125 18.1366 30.5625 18.521C31.5188 19.5976 32.1 20.9625 32.1 22.6543C32.1 28.5561 28.5938 29.8634 25.2563 30.2478C25.8 30.7285 26.2688 31.6512 26.2688 33.093C26.2688 35.15 26.25 36.8033 26.25 37.3224C26.25 37.7261 26.5312 38.2067 27.2812 38.0529C30.259 37.0221 32.8465 35.0599 34.6796 32.4424C36.5127 29.825 37.4991 26.684 37.5 23.4617C37.5 14.9646 30.7875 8.08228 22.5 8.08228Z" fill="#4D4747"/>
</svg>
