<svg width="71" height="71" viewBox="0 0 71 71" fill="none" xmlns="http://www.w3.org/2000/svg">
<circle cx="35.4458" cy="35.0823" r="27.5" fill="#C4C4C4" fill-opacity="0.4"/>
<path d="M50.4458 22.2316L47.7127 52.849L35.4275 56.2548L23.176 52.8537L20.4458 22.2316H50.4458Z" fill="#E44D26"/>
<path d="M35.4458 53.6514L45.3729 50.8993L47.7084 24.7353H35.4458V53.6514Z" fill="#F16529"/>
<path d="M30.1328 32.2468H35.4458V28.4911H26.0283L27.0413 39.8483H35.4458V36.0927H30.4761L30.1328 32.2468ZM30.9793 41.7262H27.2091L27.7352 47.6232L35.4285 49.7588L35.4458 49.7541V45.8466L35.4293 45.8509L31.2467 44.7215L30.9793 41.7262Z" fill="#EBEBEB"/>
<path d="M23.2369 13.9098H25.1455V15.7954H26.8915V13.9098H28.8002V19.62H26.8916V17.7079H25.1457V19.62H23.2371L23.2369 13.9098ZM29.63 15.8034V13.9098H34.8999V15.8034H33.2189V19.62H31.3103V15.8034H29.63ZM35.7363 13.9098H37.7263L38.9505 15.9162L40.1735 13.9098H42.1644V19.62H40.2636V16.7897L38.9505 18.82H38.9176L37.6037 16.7897V19.62H35.7363V13.9098ZM45.0234 13.9098V17.7326H47.7075V19.62H43.1141V13.9098H45.0234Z" fill="black"/>
<path d="M35.4329 39.8483H40.0576L39.6215 44.7192L35.4327 45.8497V49.757L43.1321 47.6232L44.0713 37.1012L44.1629 36.0927H35.4329V39.8483ZM35.4329 32.2468H44.5046L44.8408 28.4911H35.4329V32.2468Z" fill="white"/>
<path d="M10.6971 10.3335C4.97131 16.0593 1.40802 23.5932 0.614335 31.6517C-0.179352 39.7101 1.84567 47.7945 6.34437 54.5272C10.8431 61.26 17.5371 66.2246 25.2858 68.5752C33.0346 70.9258 41.3587 70.5168 48.8397 67.4181C56.3208 64.3193 62.4959 58.7225 66.313 51.5812C70.1301 44.4399 71.353 36.196 69.7733 28.2541C68.1936 20.3123 63.909 13.1639 57.6496 8.02691C51.3902 2.88995 43.5432 0.082276 35.4458 0.0822754V5.4384C42.3041 5.4384 48.9502 7.81641 54.2517 12.1673C59.5532 16.5181 63.1821 22.5726 64.5201 29.299C65.8581 36.0255 64.8223 43.0079 61.5894 49.0563C58.3564 55.1048 53.1262 59.8451 46.79 62.4696C40.4538 65.0942 33.4036 65.4405 26.8406 63.4497C20.2777 61.4588 14.6081 57.254 10.7978 51.5515C6.98757 45.8491 5.27244 39.0019 5.94467 32.1767C6.6169 25.3514 9.63489 18.9704 14.4844 14.1209L10.6971 10.3335Z" fill="#3B5999"/>
</svg>
