<svg width="70" height="71" viewBox="0 0 70 71" fill="none" xmlns="http://www.w3.org/2000/svg">
<circle cx="35" cy="35.5823" r="27.5" fill="#C4C4C4" fill-opacity="0.4"/>
<path d="M18.2335 16.4073H51.7665L48.6106 54.5278L34.9231 58.7573L21.2316 54.5278L18.2335 16.4073Z" fill="#D4B830"/>
<path d="M35 19.4803H48.9042L46.0469 52.1086L35 55.6842V19.4803Z" fill="#FDD83C"/>
<path fill-rule="evenodd" clip-rule="evenodd" d="M24.6843 26.3599C24.5778 25.0837 24.4903 24.0336 24.4899 24.0263C24.4894 24.019 26.598 24.013 29.1755 24.013H33.8619V50.1503L33.8263 50.1407C33.7681 50.1251 28.6533 48.9916 25.9302 48.3909C24.5415 48.0846 23.4008 47.8282 23.3952 47.8212C23.3832 47.8062 22.7973 40.5093 22.8065 40.4898C22.8099 40.4826 23.7559 40.4766 24.9087 40.4766C26.0614 40.4766 27.0079 40.4826 27.0119 40.4898C27.0159 40.4971 27.0852 41.3329 27.1658 42.3471C27.2465 43.3613 27.3166 44.1964 27.3217 44.2029C27.3293 44.2126 29.585 44.5881 29.6355 44.5881C29.6449 44.5881 29.6505 41.6222 29.6505 36.6387V28.6893L24.8781 28.6804L24.6843 26.3599Z" fill="black"/>
<path fill-rule="evenodd" clip-rule="evenodd" d="M36.1576 38.1473V24.013H47.1936L47.1836 24.1233C47.1781 24.184 47.0941 25.2341 46.9968 26.457L46.8201 28.6804L40.5273 28.6893V33.4712H46.4514L46.4424 33.5374C46.4374 33.5738 46.1765 36.7877 45.8625 40.6795C45.5484 44.5713 45.2885 47.7716 45.2849 47.7912C45.2788 47.8236 44.8512 47.9352 40.7377 48.9782C38.2404 49.6114 36.1882 50.1293 36.1773 50.1292C36.1615 50.1289 36.1583 49.637 36.1615 47.6989L36.1655 45.2688L38.7614 44.7423C40.1892 44.4528 41.3595 44.2135 41.362 44.2107C41.3646 44.2078 41.4767 42.8801 41.6112 41.2602C41.7457 39.6403 41.8599 38.2773 41.865 38.2312L41.8741 38.1473H36.1576Z" fill="#4D4D4D"/>
<path d="M32.2539 0.690169C37.7603 0.256811 43.291 1.13279 48.3939 3.24649C53.4968 5.36019 58.0271 8.65159 61.6142 12.8516C65.2013 17.0516 67.7435 22.0409 69.0329 27.4117C70.3223 32.7824 70.3223 38.3821 69.033 43.7529L63.8248 42.5025C64.9169 37.9536 64.9169 33.2109 63.8248 28.662C62.7327 24.1132 60.5796 19.8874 57.5414 16.3301C54.5032 12.7729 50.6662 9.98514 46.3442 8.19491C42.0222 6.40467 37.3379 5.66274 32.6742 6.02978L32.2539 0.690169Z" fill="#3B5999"/>
</svg>
