<svg width="45" height="46" viewBox="0 0 45 46" fill="none" xmlns="http://www.w3.org/2000/svg">
<g clip-path="url(#clip0_408_178)">
<path d="M22.5 0.5C9.84373 0.5 -1.52588e-05 10.3438 -1.52588e-05 23C-1.52588e-05 37.7656 13.3594 44.0938 15.4687 44.0938C16.875 44.0938 16.875 43.3906 16.875 42.6875V39.1719C11.9531 40.5781 9.84373 37.7656 9.14061 35.6562C9.14061 35.6562 9.14061 34.9531 7.73436 33.5469C7.03123 32.8438 4.21873 31.4375 7.03123 31.4375C9.14061 31.4375 10.5469 34.25 10.5469 34.25C12.6562 37.0625 15.4687 36.3594 16.875 35.6562C16.875 34.25 18.2812 32.8438 18.2812 32.8438C12.6562 32.1406 8.43748 30.0312 8.43748 22.2969C8.43748 19.4844 9.14061 17.375 10.5469 15.9688C10.5469 15.9688 9.14061 13.1562 10.5469 9.64062C10.5469 9.64062 14.0625 9.64062 16.875 12.4531C18.9844 11.0469 26.0156 11.0469 28.125 12.4531C30.9375 9.64062 34.4531 9.64062 34.4531 9.64062C35.8594 14.5625 34.4531 15.9688 34.4531 15.9688C35.8594 17.375 36.5625 19.4844 36.5625 22.2969C36.5625 30.0312 31.6406 32.1406 26.7187 32.8438C27.4219 33.5469 28.125 34.9531 28.125 37.0625V42.6875C28.125 43.3906 28.125 44.0938 29.5312 44.0938C31.6406 44.0938 45 37.7656 45 23C45 10.3438 35.1562 0.5 22.5 0.5Z" fill="#3B5999"/>
</g>
<defs>
<clipPath id="clip0_408_178">
<rect width="45" height="45" fill="white" transform="translate(-1.52588e-05 0.5)"/>
</clipPath>
</defs>
</svg>
