<svg width="45" height="46" viewBox="0 0 45 46" fill="none" xmlns="http://www.w3.org/2000/svg">
<path fill-rule="evenodd" clip-rule="evenodd" d="M22.5 38.0823C30.7843 38.0823 37.5 31.3665 37.5 23.0823C37.5 14.798 30.7843 8.08228 22.5 8.08228C14.2157 8.08228 7.5 14.798 7.5 23.0823C7.5 31.3665 14.2157 38.0823 22.5 38.0823ZM13.7244 16.668C13.7452 16.6498 13.8572 16.6127 13.9732 16.5854C14.3014 16.5082 30.6762 16.5064 31.0147 16.5835C31.1406 16.6122 31.261 16.6509 31.2821 16.6696C31.3203 16.7033 23.2918 23.7419 22.7209 24.1751L22.459 24.3739L18.0728 20.5375C15.1978 18.0228 13.6996 16.6897 13.7244 16.668ZM12.6665 23.0847C12.6665 17.7551 12.6688 17.6593 12.8041 17.468C12.8154 17.4519 12.8367 17.4387 12.8514 17.4387C12.866 17.4387 14.3303 18.7091 16.1053 20.2617L19.3327 23.0847L16.0966 25.9152C13.9971 27.7515 12.8474 28.7342 12.8231 28.7129C12.6682 28.5772 12.6665 28.5151 12.6665 23.0847ZM25.6726 23.0847L28.8999 20.2617C30.6749 18.709 32.1432 17.4434 32.1626 17.449C32.1737 17.4523 32.184 17.4551 32.1936 17.4595C32.3199 17.5177 32.3197 17.8505 32.3297 22.9978C32.3404 28.5216 32.339 28.5757 32.1825 28.7126C32.1577 28.7343 31.03 27.7706 28.9086 25.9152L25.6726 23.0847ZM13.7241 29.501C13.6999 29.4798 14.8216 28.4756 16.9131 26.6461C18.6876 25.094 20.1483 23.824 20.1591 23.824C20.1698 23.824 20.5848 24.181 21.0813 24.6174C22.0437 25.4634 22.242 25.6052 22.4621 25.605C22.6754 25.6047 22.8125 25.509 23.8468 24.639C24.3797 24.1907 24.8269 23.824 24.8407 23.824C24.9083 23.824 31.3151 29.4713 31.2811 29.501C31.2749 29.5064 31.2691 29.5116 31.263 29.5166C31.1158 29.6391 30.8656 29.6379 22.5026 29.6379C14.1396 29.6379 13.8894 29.6391 13.7422 29.5166C13.7362 29.5116 13.7303 29.5064 13.7241 29.501Z" fill="#4D4747"/>
</svg>
