<svg width="45" height="46" viewBox="0 0 45 46" fill="none" xmlns="http://www.w3.org/2000/svg">
<path fill-rule="evenodd" clip-rule="evenodd" d="M22.5 38.0823C30.7843 38.0823 37.5 31.3665 37.5 23.0823C37.5 14.798 30.7843 8.08228 22.5 8.08228C14.2157 8.08228 7.5 14.798 7.5 23.0823C7.5 31.3665 14.2157 38.0823 22.5 38.0823ZM31.49 16.5387C31.49 18.072 30.247 19.315 28.7137 19.315C27.1805 19.315 25.9375 18.072 25.9375 16.5387C25.9375 15.0055 27.1805 13.7625 28.7137 13.7625C30.247 13.7625 31.49 15.0055 31.49 16.5387ZM28.586 20.6975C28.0192 20.6839 27.4611 20.5541 26.9464 20.3163C26.4316 20.0785 25.9711 19.7377 25.5933 19.315C25.7961 20.1778 25.6783 21.085 25.2618 21.8675C24.8453 22.65 24.1586 23.2544 23.3295 23.568C22.5005 23.8817 21.5857 23.8833 20.7556 23.5724C19.9254 23.2616 19.2366 22.6596 18.8175 21.8786C18.3983 21.0975 18.2774 20.1907 18.4773 19.3272C18.6771 18.4636 19.1841 17.7021 19.9038 17.1846C20.6235 16.6672 21.5067 16.429 22.389 16.5144C23.2713 16.5999 24.0924 17.0032 24.6993 17.6492C24.4541 16.7594 24.5147 15.8131 24.8715 14.9618C23.8773 14.4817 22.7776 14.2617 21.6753 14.3224C20.573 14.3832 19.5041 14.7226 18.5687 15.309C17.6333 15.8955 16.8621 16.7096 16.3271 17.6754C15.7922 18.6411 15.511 19.7268 15.51 20.8308C15.51 23.4238 16.9648 25.5948 18.0308 27.1772L18.2252 27.4659C19.2859 29.0032 20.4237 30.4857 21.6344 31.9079L22.0564 32.4021L22.4784 31.9079C23.6889 30.4856 24.8267 29.0031 25.8875 27.4659L26.0819 27.1717L26.0883 27.1621C27.1482 25.5805 28.5971 23.4186 28.5971 20.8308C28.5916 20.7864 28.586 20.7419 28.586 20.6975ZM22.0508 22.1856C23.1946 22.1856 24.1219 21.2583 24.1219 20.1145C24.1219 18.9707 23.1946 18.0435 22.0508 18.0435C20.907 18.0435 19.9798 18.9707 19.9798 20.1145C19.9798 21.2583 20.907 22.1856 22.0508 22.1856Z" fill="#4D4747"/>
</svg>
