<svg width="71" height="71" viewBox="0 0 71 71" fill="none" xmlns="http://www.w3.org/2000/svg">
<circle cx="35.8916" cy="35.0823" r="27.5" fill="#C4C4C4" fill-opacity="0.4"/>
<path d="M50.9737 38.0218C49.6131 38.0288 48.4306 38.3565 47.4405 38.8409C47.0771 38.1214 46.7138 37.4804 46.6498 37.0102C46.5784 36.4617 46.493 36.1269 46.5784 35.4715C46.664 34.8161 47.0486 33.8829 47.0415 33.8117C47.0344 33.7405 46.9559 33.4056 46.1724 33.3986C45.3888 33.3914 44.7121 33.5482 44.6337 33.7547C44.5554 33.9613 44.4058 34.4315 44.306 34.9157C44.1707 35.6282 42.739 38.1712 41.9198 39.5033C41.6562 38.9834 41.4282 38.5274 41.3783 38.1641C41.3071 37.6157 41.2216 37.2809 41.3071 36.6255C41.3927 35.9701 41.7773 35.037 41.7701 34.9657C41.763 34.8945 41.6846 34.5596 40.9011 34.5526C40.1174 34.5454 39.4406 34.7022 39.3624 34.9087C39.284 35.1154 39.1985 35.5997 39.0347 36.0699C38.8708 36.5401 36.9689 40.7858 36.4702 41.8826C36.2687 42.3266 36.0574 42.766 35.8363 43.2005C35.8363 43.2005 35.8291 43.2219 35.8077 43.2575C35.7382 43.3938 35.667 43.5291 35.5941 43.6635V43.6706C35.4872 43.8631 35.3732 44.041 35.3162 44.041C35.2735 44.041 35.1951 43.5282 35.3305 42.8301C35.6154 41.3556 36.2921 39.0618 36.2851 38.9834C36.2851 38.9407 36.4133 38.5418 35.8434 38.3351C35.2877 38.1285 35.0883 38.4704 35.0384 38.4704C34.9886 38.4704 34.9528 38.5916 34.9528 38.5916C34.9528 38.5916 35.5727 36.0129 33.7704 36.0129C32.645 36.0129 31.092 37.2453 30.3226 38.3565C29.4481 38.8324 28.5743 39.3097 27.7012 39.7883C27.2811 40.0235 26.8465 40.2586 26.4404 40.4793C26.4119 40.4509 26.3834 40.4151 26.3549 40.3867C24.1751 38.0574 20.1433 36.4118 20.3142 33.2847C20.3784 32.1449 20.7701 29.153 28.0574 25.52C34.0553 22.5637 38.8282 23.3829 39.6545 25.1994C40.8369 27.7924 37.0972 32.6079 30.8996 33.3059C28.5347 33.5696 27.2951 32.6577 26.9818 32.3158C26.6541 31.9596 26.6042 31.9382 26.483 32.0095C26.2837 32.1165 26.4119 32.437 26.483 32.6221C26.6683 33.1064 27.4305 33.9613 28.7198 34.3817C29.8596 34.752 32.6306 34.9587 35.9858 33.6621C39.7399 32.2089 42.6748 28.1699 41.8129 24.7863C40.9509 21.3528 35.2521 20.2201 29.8596 22.1363C26.6541 23.2762 23.1778 25.0712 20.6775 27.4078C17.707 30.1858 17.2368 32.6007 17.4291 33.6123C18.1202 37.2025 23.071 39.539 25.0513 41.27C24.9516 41.327 24.8588 41.377 24.7806 41.4197C23.7904 41.9112 20.0149 43.8843 19.0747 45.9715C18.0062 48.3365 19.2458 50.032 20.0649 50.2598C22.608 50.9651 25.2223 49.6972 26.6256 47.6028C28.0289 45.5085 27.8579 42.7873 27.2097 41.5407C27.2026 41.5265 27.1955 41.5122 27.1812 41.4979C27.4377 41.3484 27.7012 41.1917 27.9577 41.0421C28.4291 40.7634 28.9065 40.495 29.3896 40.237C29.1473 40.8996 28.9691 41.6903 28.8838 42.8301C28.7768 44.1694 29.3252 45.9074 30.0448 46.5911C30.3654 46.8906 30.7429 46.8976 30.9852 46.8976C31.8257 46.8976 32.2033 46.1995 32.6236 45.3731C33.1364 44.3617 33.5995 43.1863 33.5995 43.1863C33.5995 43.1863 33.0225 46.3634 34.5897 46.3634C35.1595 46.3634 35.7365 45.6225 35.993 45.245V45.252C35.993 45.252 36.0072 45.2306 36.0358 45.1808C36.0928 45.0882 36.1284 45.0311 36.1284 45.0311V45.017C36.3563 44.618 36.8693 43.7134 37.6314 42.2103C38.6145 40.2728 39.5619 37.8508 39.5619 37.8508C39.5619 37.8508 39.6475 38.442 39.9394 39.4251C40.1105 40.0021 40.4664 40.636 40.7515 41.2486C40.5236 41.5693 40.381 41.7473 40.381 41.7473L40.3882 41.7544C40.2029 41.9966 40.0036 42.2601 39.7827 42.5167C39.0061 43.4426 38.0802 44.5042 37.9519 44.8104C37.8022 45.1736 37.8379 45.4373 38.123 45.651C38.3295 45.8078 38.6999 45.829 39.0775 45.8078C39.7756 45.7578 40.2671 45.5869 40.5092 45.4801C40.8868 45.3447 41.3285 45.138 41.7416 44.8317C42.5039 44.269 42.9667 43.464 42.9241 42.4028C42.9027 41.8186 42.7104 41.2344 42.4753 40.6858C42.5466 40.5862 42.6107 40.4865 42.682 40.3867C43.8858 38.6272 44.819 36.6967 44.819 36.6967C44.819 36.6967 44.9046 37.2879 45.1965 38.2711C45.339 38.7697 45.6311 39.3111 45.8875 39.8381C44.7549 40.7572 44.0567 41.8256 43.8074 42.5238C43.3587 43.8203 43.7077 44.4043 44.3702 44.5397C44.6693 44.6038 45.0968 44.4613 45.4102 44.3259C45.8091 44.1978 46.2793 43.977 46.7281 43.6492C47.4904 43.0866 48.224 42.3029 48.1812 41.2416C48.1599 40.7572 48.0317 40.2798 47.8536 39.8168C48.8152 39.418 50.0548 39.1971 51.636 39.3823C55.027 39.7812 55.6965 41.8968 55.5682 42.7874C55.4401 43.6778 54.7277 44.1622 54.4928 44.3117C54.2575 44.4614 54.1793 44.5112 54.2007 44.618C54.2291 44.7748 54.343 44.7677 54.5426 44.7392C54.8204 44.6894 56.3235 44.0196 56.3875 42.3812C56.4944 40.287 54.4998 38.0004 50.9737 38.0218ZM24.8162 46.8406C23.6906 48.0658 22.1236 48.5288 21.4468 48.1371C20.7203 47.7167 21.0052 45.9074 22.3871 44.611C23.2276 43.8203 24.3104 43.0864 25.0299 42.6377C25.1937 42.538 25.436 42.3956 25.7281 42.2175C25.7779 42.1889 25.8064 42.1747 25.8064 42.1747L25.9774 42.0678C26.483 43.9199 25.9988 45.5513 24.8162 46.8406ZM33.0083 41.27C32.6164 42.2246 31.7973 44.668 31.2987 44.5326C30.8712 44.4187 30.6076 42.5665 31.2131 40.7358C31.5194 39.8168 32.1676 38.7198 32.5452 38.2925C33.1578 37.6085 33.8346 37.3805 33.9983 37.6585C34.205 38.0218 33.2504 40.6716 33.0083 41.27ZM39.7684 44.5041C39.6045 44.5896 39.4479 44.6466 39.3766 44.6038C39.3268 44.5753 39.4479 44.4613 39.4479 44.4613C39.4479 44.4613 40.2956 43.5496 40.6304 43.1364C40.8228 42.8942 41.0506 42.6093 41.2929 42.2887V42.3812C41.2929 43.4712 40.2385 44.205 39.7683 44.5041H39.7684ZM44.9828 43.3145C44.8617 43.2289 44.883 42.944 45.2891 42.0536C45.4458 41.7045 45.8161 41.1205 46.4503 40.5577C46.5215 40.7856 46.5714 41.0065 46.5642 41.213C46.557 42.5879 45.5742 43.1008 44.9828 43.3145Z" fill="#4E4549"/>
<path d="M15.1894 6.86137C8.46993 11.7906 3.72976 18.9557 1.82152 27.0679C-0.0867178 35.1801 0.962199 43.707 4.77961 51.1149C8.59702 58.5227 14.9324 64.3254 22.6462 67.4792C30.36 70.6329 38.946 70.9308 46.8598 68.3193C54.7736 65.7077 61.496 60.3581 65.8176 53.2326C70.1393 46.1071 71.7766 37.6735 70.4352 29.4485C69.0938 21.2236 64.8616 13.7472 58.4999 8.36405C52.1382 2.98094 44.0645 0.0444069 35.731 0.0826438L35.7556 5.43871C42.8138 5.40633 49.652 7.89348 55.0401 12.4528C60.4283 17.0121 64.0128 23.3444 65.1489 30.3107C66.2851 37.2769 64.8983 44.42 61.238 50.455C57.5777 56.4901 51.8841 61.021 45.1813 63.2329C38.4786 65.4449 31.2065 65.1926 24.6732 62.5214C18.1398 59.8503 12.774 54.9356 9.54074 48.6614C6.30752 42.3871 5.41912 35.1651 7.03534 28.2944C8.65156 21.4236 12.6663 15.355 18.3575 11.1801L15.1894 6.86137Z" fill="#3B5999"/>
</svg>
