<svg width="45" height="46" viewBox="0 0 45 46" fill="none" xmlns="http://www.w3.org/2000/svg">
<path d="M22.5 8.08228C14.2157 8.08228 7.5 14.798 7.5 23.0823C7.5 31.3666 14.2157 38.0823 22.5 38.0823C30.7843 38.0823 37.5 31.3666 37.5 23.0823C37.5 14.798 30.7843 8.08228 22.5 8.08228ZM17.1094 14.0405C17.4184 14.0223 17.6978 14.207 17.9095 14.5349L19.9603 18.4241C20.1763 18.8849 20.0535 19.3784 19.7315 19.7076L18.7921 20.647C18.7341 20.7264 18.696 20.8159 18.6951 20.9143C19.0553 22.3087 20.148 23.5949 21.1121 24.4794C22.0762 25.3638 23.1123 26.5614 24.4574 26.8451C24.6237 26.8915 24.8273 26.9081 24.9463 26.7975L26.0376 25.6861C26.4143 25.4005 26.9593 25.2621 27.3615 25.4956H27.3798L31.0803 27.6801C31.6235 28.0205 31.6798 28.6787 31.2908 29.079L28.7421 31.6077C28.3657 31.9937 27.8656 32.1235 27.3798 32.124C25.2311 32.0597 23.2009 31.0051 21.5333 29.9213C18.796 27.93 16.2852 25.4601 14.7089 22.4762C14.1043 21.225 13.3942 19.6285 13.4619 18.2319C13.468 17.7065 13.6101 17.1917 13.9801 16.8531L16.5289 14.3043C16.7275 14.1353 16.9239 14.0515 17.1094 14.0405Z" fill="#4D4747"/>
</svg>
