<svg width="45" height="46" viewBox="0 0 45 46" fill="none" xmlns="http://www.w3.org/2000/svg">
<path fill-rule="evenodd" clip-rule="evenodd" d="M37.5 23.0823C37.5 31.366 30.7838 38.0823 22.5 38.0823C14.2163 38.0823 7.5 31.366 7.5 23.0823C7.5 14.7985 14.2163 8.08228 22.5 8.08228C30.7838 8.08228 37.5 14.7985 37.5 23.0823ZM23.0375 19.156C21.5788 19.7623 18.6625 21.0185 14.29 22.9235C13.58 23.206 13.2075 23.4823 13.1737 23.7523C13.1163 24.2098 13.6887 24.3898 14.4662 24.6335C14.5725 24.6673 14.6825 24.701 14.795 24.7385C15.5612 24.9873 16.5913 25.2785 17.1263 25.2898C17.6125 25.2998 18.155 25.0998 18.7537 24.6898C22.8387 21.931 24.9475 20.5373 25.08 20.5073C25.1737 20.486 25.3037 20.4585 25.3913 20.5373C25.4788 20.6148 25.47 20.7623 25.4613 20.8023C25.4038 21.0435 23.1613 23.1298 21.9987 24.2098C21.6362 24.546 21.38 24.7848 21.3275 24.8398C21.21 24.961 21.09 25.0773 20.975 25.1885C20.2625 25.8735 19.73 26.3885 21.005 27.2285C21.6175 27.6323 22.1075 27.966 22.5962 28.2985C23.13 28.6623 23.6625 29.0248 24.3525 29.4773C24.5275 29.5923 24.695 29.711 24.8587 29.8273C25.48 30.271 26.0387 30.6685 26.7288 30.606C27.1287 30.5685 27.5437 30.1923 27.7537 29.0685C28.25 26.411 29.2275 20.656 29.4538 18.2835C29.4675 18.0865 29.4591 17.8886 29.4287 17.6935C29.4106 17.5359 29.3338 17.3909 29.2138 17.2873C29.035 17.141 28.7575 17.1098 28.6325 17.1123C28.0688 17.1223 27.2038 17.4235 23.0375 19.156Z" fill="#4D4747"/>
</svg>
