<svg width="71" height="71" viewBox="0 0 71 71" fill="none" xmlns="http://www.w3.org/2000/svg">
<circle cx="35.6145" cy="35.0823" r="27.5" fill="#C4C4C4" fill-opacity="0.4"/>
<path fill-rule="evenodd" clip-rule="evenodd" d="M35.2661 19.6357C33.1097 19.7088 31.2068 20.1431 29.3057 20.996C27.4415 21.8324 25.8454 22.9675 24.4112 24.4771C22.1274 26.8806 20.7054 29.8938 20.2751 33.2408C20.1851 33.9401 20.1657 35.3594 20.232 36.3868C20.3011 37.4585 20.5576 38.7251 20.9504 39.9342C22.4271 44.4798 26.1235 48.2053 30.6647 49.7252C34.0756 50.8667 37.8132 50.7984 41.1047 49.5342C42.7228 48.9128 44.3784 47.9396 45.5015 46.9496C46.5563 46.02 47.5174 44.9993 48.1074 44.1825C49.6532 42.0421 50.5535 39.7999 50.9474 37.1092C51.0207 36.6091 51.0479 35.7771 51.0322 34.5249C51.0221 33.7256 51.0014 33.4032 50.9314 32.9572C50.4572 29.9371 49.3058 27.3679 47.4379 25.1616C45.1008 22.4013 42.1169 20.6368 38.5994 19.9352C37.5052 19.7169 36.2354 19.6028 35.2661 19.6357ZM36.1329 20.6786C36.946 20.7023 37.4164 20.7385 37.8718 20.8126C42.808 21.6158 46.9478 24.8553 48.9162 29.4551C49.2655 30.2713 49.5357 31.1201 49.7435 32.0542C49.9828 33.1293 50.0227 33.5642 50.0227 35.0974C50.0227 36.1473 50.0061 36.5509 49.9418 37.0664C49.8545 37.7672 49.5658 38.9676 49.2787 39.8242C48.7927 41.274 47.7791 43.0656 46.7314 44.3269C44.3479 47.1964 40.7495 49.1224 37.1655 49.4468C36.3209 49.5233 35.1492 49.5369 34.3833 49.4791C32.3922 49.3288 30.3591 48.7003 28.5245 47.6679C27.6564 47.1793 26.8122 46.5829 26.1757 46.0083C25.6227 45.5092 24.9117 44.7906 24.5304 44.3457C23.6209 43.2843 22.6195 41.5622 22.0771 40.1268C21.2579 37.9589 20.9844 35.374 21.3238 33.0054C21.5433 31.4731 22.0747 29.8092 22.7592 28.511C22.8958 28.252 22.9298 28.1888 23.0009 28.0615C25.054 24.3921 28.6527 21.7514 32.7052 20.9407C34.0155 20.6786 34.5994 20.634 36.1329 20.6786ZM31.3389 28.207C31.0905 28.2253 30.9305 28.2508 30.7746 28.297C29.9065 28.5542 29.1303 29.2807 28.7824 30.1619C28.5389 30.7786 28.423 31.4033 28.4229 32.0985L28.4229 32.3847H29.2522C29.7083 32.3847 30.0815 32.3811 30.0816 32.3767C30.0819 32.3276 30.1503 31.7382 30.167 31.641C30.2871 30.9405 30.5608 30.4636 30.9857 30.2144C31.2539 30.0572 31.6629 30.0163 32.227 30.0904C32.7196 30.155 33.1991 30.341 34.6241 31.0204C36.7169 32.0182 37.5869 32.3334 38.5792 32.4532C39.7871 32.5991 40.8341 32.2401 41.4945 31.4537C42.0155 30.8333 42.2567 30.075 42.3129 28.8802C42.319 28.7507 42.3284 28.5584 42.3338 28.4529C42.3392 28.3474 42.3412 28.2571 42.3382 28.2523C42.3352 28.2474 41.9581 28.2435 41.5001 28.2435H40.6675L40.6605 28.3264C40.6566 28.372 40.6465 28.5032 40.6379 28.618C40.5909 29.249 40.5059 29.6092 40.331 29.9181C40.1248 30.2823 39.8466 30.4785 39.4181 30.5619C39.3027 30.5843 38.8862 30.5873 38.7386 30.5667C38.0363 30.4689 37.4458 30.2499 35.7851 29.4713C35.1462 29.1718 34.8899 29.0557 34.4689 28.8748C33.4734 28.4471 32.9737 28.2914 32.3876 28.2265C32.2462 28.2108 31.4808 28.1966 31.3389 28.207ZM34.432 32.8582C34.4281 32.9833 34.424 35.5716 34.4228 38.61L34.4207 44.1343H35.4625C36.4081 44.1343 36.5038 44.1327 36.4979 44.1174C36.4943 44.1081 36.4914 41.6883 36.4914 38.7402C36.4914 33.5024 36.4909 33.3799 36.4713 33.3799C36.4592 33.3799 36.446 33.3675 36.4383 33.3489C36.4231 33.3121 36.4314 33.3154 35.7369 33.0712C34.9456 32.7929 34.4728 32.6308 34.4525 32.6308C34.4425 32.6308 34.4374 32.6876 34.432 32.8582Z" fill="black"/>
<path d="M14.9123 6.86137C8.19283 11.7906 3.45266 18.9557 1.54442 27.0679C-0.363817 35.1801 0.6851 43.707 4.50251 51.1149C8.31992 58.5227 14.6553 64.3254 22.3691 67.4792C30.0829 70.6329 38.6689 70.9308 46.5827 68.3193C54.4965 65.7077 61.2189 60.3581 65.5405 53.2326C69.8622 46.1071 71.4995 37.6735 70.1581 29.4485C68.8167 21.2236 64.5845 13.7472 58.2228 8.36405C51.8611 2.98094 43.7874 0.0444069 35.4539 0.0826438L35.4785 5.43871C42.5367 5.40633 49.3749 7.89348 54.763 12.4528C60.1512 17.0121 63.7357 23.3444 64.8718 30.3107C66.008 37.2769 64.6212 44.42 60.9609 50.455C57.3006 56.4901 51.607 61.021 44.9042 63.2329C38.2015 65.4449 30.9294 65.1926 24.3961 62.5214C17.8627 59.8503 12.4969 54.9356 9.26365 48.6614C6.03042 42.3871 5.14202 35.1651 6.75824 28.2944C8.37446 21.4236 12.3892 15.355 18.0804 11.1801L14.9123 6.86137Z" fill="#3B5999"/>
</svg>
