<svg width="45" height="46" viewBox="0 0 45 46" fill="none" xmlns="http://www.w3.org/2000/svg">
<path d="M22.5 8.08228C14.2156 8.08228 7.5 14.7979 7.5 23.0823C7.5 31.3666 14.2156 38.0823 22.5 38.0823C30.7844 38.0823 37.5 31.3666 37.5 23.0823C37.5 14.7979 30.7844 8.08228 22.5 8.08228ZM28.2687 25.0057C28.2687 25.0057 29.5953 26.3151 29.9219 26.9229C29.9312 26.9354 29.9359 26.9479 29.9391 26.9541C30.0719 27.1776 30.1031 27.351 30.0375 27.4807C29.9281 27.6963 29.5531 27.8026 29.425 27.812H27.0812C26.9187 27.812 26.5781 27.7698 26.1656 27.4854C25.8484 27.2635 25.5359 26.8995 25.2312 26.5448C24.7766 26.0166 24.3828 25.5604 23.9859 25.5604C23.9355 25.5603 23.8854 25.5682 23.8375 25.5838C23.5375 25.6807 23.1531 26.1088 23.1531 27.2495C23.1531 27.6057 22.8719 27.8104 22.6734 27.8104H21.6C21.2344 27.8104 19.3297 27.6823 17.6422 25.9026C15.5766 23.7229 13.7172 19.351 13.7016 19.3104C13.5844 19.0276 13.8266 18.876 14.0906 18.876H16.4578C16.7734 18.876 16.8766 19.0682 16.9484 19.2385C17.0328 19.437 17.3422 20.226 17.85 21.1135C18.6734 22.5604 19.1781 23.1479 19.5828 23.1479C19.6587 23.147 19.7332 23.1277 19.8 23.0916C20.3281 22.7979 20.2297 20.9151 20.2062 20.5245C20.2062 20.451 20.2047 19.6823 19.9344 19.3135C19.7406 19.0463 19.4109 18.9448 19.2109 18.9073C19.2919 18.7956 19.3985 18.705 19.5219 18.6432C19.8844 18.462 20.5375 18.4354 21.1859 18.4354H21.5469C22.25 18.4448 22.4313 18.4901 22.6859 18.5541C23.2016 18.6776 23.2125 19.0104 23.1672 20.1495C23.1531 20.4729 23.1391 20.8385 23.1391 21.2698C23.1391 21.3635 23.1344 21.4635 23.1344 21.5698C23.1187 22.1495 23.1 22.8073 23.5094 23.0776C23.5628 23.1111 23.6245 23.1289 23.6875 23.1291C23.8297 23.1291 24.2578 23.1291 25.4172 21.1401C25.7747 20.4999 26.0855 19.8346 26.3469 19.1495C26.3703 19.1088 26.4391 18.9838 26.5203 18.9354C26.5803 18.9048 26.6468 18.8893 26.7141 18.8901H29.4969C29.8 18.8901 30.0078 18.9354 30.0469 19.0526C30.1156 19.2385 30.0344 19.8057 28.7641 21.526L28.1969 22.2745C27.0453 23.7838 27.0453 23.8604 28.2687 25.0057Z" fill="#4D4747"/>
</svg>
